<svg id="Layer_1" data-name="Layer 1" xmlns="http://www.w3.org/2000/svg" viewBox="0 0 400 400"><defs><style>.cls-1,.cls-3{fill:#2987e2;}.cls-2{fill:#fff;}.cls-3{opacity:0.5;}.cls-4{fill:#fdfeff;}.cls-5{fill:none;}</style></defs><title>blue</title><path class="cls-1" d="M286.67,176.35h0a31.94,31.94,0,0,1,31.94,31.94v51.09a31.94,31.94,0,0,1-31.94,31.94h0a23.48,23.48,0,0,1-23.48-23.48v-68a23.48,23.48,0,0,1,23.48-23.48Z"/><path class="cls-1" d="M104.87,176.35h0a31.94,31.94,0,0,1,31.94,31.94v51.09a31.94,31.94,0,0,1-31.94,31.94h0a23.48,23.48,0,0,1-23.48-23.48v-68A23.48,23.48,0,0,1,104.87,176.35Z" transform="translate(218.2 467.67) rotate(-180)"/><rect class="cls-1" x="95.72" y="47.15" width="203.74" height="311.75" rx="41.83"/><path class="cls-2" d="M270.77,172H127.48a12.64,12.64,0,0,0-12.64,12.64V327.94a12.64,12.64,0,0,0,12.64,12.64H227.57l55.84-55.84V184.65A12.64,12.64,0,0,0,270.77,172Z"/><path class="cls-3" d="M227.57,340.58l55.84-55.84h-43.2a12.64,12.64,0,0,0-12.64,12.64Z"/><rect class="cls-1" x="140.47" y="218.01" width="119.06" height="10.89" rx="5.44"/><rect class="cls-1" x="140.47" y="247.51" width="119.06" height="10.89" rx="5.44"/><rect class="cls-1" x="140.47" y="277.01" width="72.35" height="10.89" rx="5.44"/><rect class="cls-4" x="115.13" y="81.56" width="163.96" height="70.42" rx="20.46"/><rect class="cls-1" x="217.28" y="93.75" width="32.7" height="32.21" rx="16.1"/><rect class="cls-1" x="144.24" y="93.75" width="32.7" height="32.21" rx="16.1"/><path class="cls-1" d="M172.59,26.61h50a20,20,0,0,1,20,20V67.69a0,0,0,0,1,0,0h-90a0,0,0,0,1,0,0V46.61A20,20,0,0,1,172.59,26.61Z"/><path class="cls-1" d="M180.39,133.3a55,55,0,0,0,8.6,1.45c2.87.3,5.73.41,8.6.44,1.43.05,2.87,0,4.3-.05s2.87-.15,4.3-.3a47.1,47.1,0,0,0,8.6-1.54,3.9,3.9,0,0,1,2.85,7.22L214.79,142a30,30,0,0,1-8.6,2.69,45.29,45.29,0,0,1-8.6.63,56.8,56.8,0,0,1-8.6-.78,36.09,36.09,0,0,1-8.6-2.54l-2.68-1.25a4,4,0,0,1,2.68-7.42Z"/><path class="cls-1" d="M231.6,373.39h-68a10.84,10.84,0,0,1-8-3.51l-7.51-8.17a10.86,10.86,0,0,1,8-18.2h83a10.86,10.86,0,0,1,8,18.2l-7.51,8.17A10.83,10.83,0,0,1,231.6,373.39Z"/><rect class="cls-5" width="400" height="400"/></svg>